<?xml version="1.0" standalone="no"?>
<!DOCTYPE svg PUBLIC "-//W3C//DTD SVG 20010904//EN"
 "http://www.w3.org/TR/2001/REC-SVG-20010904/DTD/svg10.dtd">
<svg version="1.0" xmlns="http://www.w3.org/2000/svg"
 width="512.000000pt" height="512.000000pt" viewBox="0 0 512.000000 512.000000"
 preserveAspectRatio="xMidYMid meet">

<g transform="translate(0.000000,512.000000) scale(0.100000,-0.100000)"
fill="#000000" stroke="none">
<path d="M292 4772 c-35 -11 -88 -57 -105 -95 -15 -31 -17 -94 -17 -571 l0
-535 -32 -17 c-46 -23 -86 -62 -111 -109 -30 -56 -30 -173 0 -231 26 -49 75
-98 114 -114 l29 -12 0 -528 0 -528 -29 -12 c-39 -16 -88 -65 -114 -114 -30
-58 -30 -175 0 -231 25 -47 65 -86 110 -109 l33 -17 0 -519 0 -520 -58 0 c-35
0 -66 -6 -79 -15 -45 -32 -37 -121 13 -144 36 -16 4992 -16 5028 0 50 23 58
112 13 144 -13 9 -44 15 -79 15 l-58 0 0 520 0 520 38 19 c44 23 83 62 108
111 27 52 26 171 -3 226 -26 49 -75 98 -114 114 l-29 12 0 528 0 528 29 12
c16 6 43 26 61 43 128 125 94 339 -65 413 l-50 24 -722 0 -721 0 -10 28 c-202
564 -378 1045 -392 1072 -10 19 -27 43 -38 53 -52 47 -16 46 -1412 46 -723 -1
-1325 -4 -1338 -7z m2816 -670 c100 -279 182 -511 182 -515 0 -4 -88 -7 -195
-7 l-195 0 0 283 c0 303 -5 338 -53 413 -65 102 -165 157 -287 157 -122 0
-222 -55 -287 -157 -48 -75 -53 -110 -53 -413 l0 -283 -85 0 -85 0 0 265 c0
345 -11 397 -106 492 -162 162 -432 116 -543 -92 l-26 -50 -5 -305 -5 -305
-85 0 -85 0 -5 305 -5 305 -26 50 c-111 208 -381 254 -543 92 -95 -95 -106
-147 -106 -492 l0 -265 -85 0 -85 0 0 515 0 515 1293 0 1293 0 182 -508z
m-2216 158 c21 -6 51 -22 68 -37 59 -49 60 -56 60 -363 l0 -280 -167 2 -168 3
0 280 c0 247 2 284 17 312 27 48 75 78 148 92 3 0 22 -4 42 -9z m910 -26 c71
-46 73 -54 73 -369 l0 -280 -167 -3 -168 -2 0 280 c0 301 1 310 53 358 58 54
140 61 209 16z m840 10 c15 -8 40 -30 55 -51 l28 -36 3 -289 3 -288 -171 0
-170 0 0 276 c0 229 3 282 16 309 43 90 146 125 236 79z m2277 -851 c12 -10
24 -34 27 -54 5 -29 1 -41 -19 -65 l-25 -29 -2342 0 -2342 0 -25 29 c-20 24
-24 36 -19 65 3 20 15 44 27 54 20 16 147 17 2359 17 2212 0 2339 -1 2359 -17z
m-139 -833 l0 -510 -84 0 -84 0 -4 293 -3 292 -29 62 c-33 72 -97 137 -171
173 -41 21 -65 25 -135 25 -76 0 -92 -4 -152 -33 -73 -36 -124 -87 -160 -161
-22 -44 -23 -58 -26 -348 l-3 -303 -89 0 -89 0 -3 303 c-3 290 -4 304 -26 348
-36 74 -87 125 -160 161 -60 29 -76 33 -152 33 -70 0 -94 -4 -135 -25 -74 -36
-138 -101 -171 -173 l-29 -62 -3 -292 -4 -293 -83 0 -84 0 -3 298 c-3 296 -3
297 -29 352 -33 70 -99 136 -169 169 -46 22 -69 26 -140 26 -71 0 -94 -4 -140
-26 -70 -33 -136 -99 -169 -169 -26 -55 -26 -56 -29 -352 l-3 -298 -84 0 -83
0 -4 293 -3 292 -29 62 c-33 72 -97 137 -171 173 -41 21 -65 25 -135 25 -76 0
-92 -4 -152 -33 -73 -36 -124 -87 -160 -161 -22 -44 -23 -58 -26 -348 l-3
-303 -89 0 -89 0 -3 303 c-3 290 -4 304 -26 348 -36 74 -87 125 -160 161 -60
29 -76 33 -152 33 -70 0 -94 -4 -135 -25 -74 -36 -138 -101 -171 -173 l-29
-62 -3 -292 -4 -293 -84 0 -84 0 0 510 0 510 2220 0 2220 0 0 -510z m-3854
151 c23 -10 52 -34 65 -52 24 -34 24 -36 27 -321 l3 -288 -171 0 -170 0 0 258
c0 146 5 273 10 294 30 106 136 155 236 109z m847 5 c42 -17 83 -66 97 -114 5
-21 10 -148 10 -294 l0 -258 -170 0 -171 0 3 288 c3 285 3 287 27 321 44 61
135 86 204 57z m867 -9 c30 -16 51 -37 67 -67 22 -42 23 -50 23 -317 l0 -273
-170 0 -170 0 0 273 c0 267 1 275 23 317 27 51 90 90 147 90 20 0 56 -10 80
-23z m846 4 c23 -10 52 -34 65 -52 24 -34 24 -36 27 -321 l3 -288 -171 0 -170
0 0 258 c0 146 5 273 10 294 30 106 136 155 236 109z m847 5 c42 -17 83 -66
97 -114 5 -21 10 -148 10 -294 l0 -258 -170 0 -171 0 3 288 c3 285 3 287 27
321 44 61 135 86 204 57z m594 -870 c20 -24 24 -36 19 -65 -3 -20 -15 -44 -27
-53 -20 -17 -147 -18 -2358 -18 -2589 0 -2373 -6 -2387 65 -7 40 14 81 49 95
13 5 1016 8 2350 7 l2329 -2 25 -29z m-147 -821 l0 -515 -84 0 -84 0 -4 293
c-4 321 -7 335 -70 423 -35 49 -112 104 -170 123 -108 35 -247 1 -334 -81 -95
-89 -98 -105 -104 -453 l-5 -300 -85 0 -85 0 -5 300 c-6 348 -9 364 -104 453
-87 82 -226 116 -334 81 -58 -19 -135 -74 -170 -123 -63 -88 -66 -102 -70
-423 l-4 -293 -83 0 -84 0 -3 298 -3 297 -28 60 c-57 123 -171 195 -307 195
-136 0 -250 -72 -307 -195 l-28 -60 -3 -297 -3 -298 -84 0 -83 0 -4 293 c-4
321 -7 335 -70 423 -35 49 -112 104 -170 123 -108 35 -247 1 -334 -81 -95 -89
-98 -105 -104 -453 l-5 -300 -85 0 -85 0 -5 300 c-6 348 -9 364 -104 453 -87
82 -226 116 -334 81 -58 -19 -135 -74 -170 -123 -63 -88 -66 -102 -70 -423
l-4 -293 -84 0 -84 0 0 515 0 515 2220 0 2220 0 0 -515z m-3839 142 c18 -12
44 -38 56 -56 23 -33 23 -39 23 -317 l0 -284 -171 0 -170 0 3 283 c3 261 4
284 23 315 46 78 165 107 236 59z m851 1 c21 -12 49 -38 61 -58 21 -34 22 -47
25 -317 l3 -283 -170 0 -171 0 0 284 c0 278 0 284 23 317 53 79 147 103 229
57z m866 -5 c15 -11 37 -37 49 -59 22 -38 23 -48 23 -316 l0 -278 -170 0 -170
0 0 275 c0 251 2 279 19 313 36 71 78 93 164 89 38 -2 66 -10 85 -24z m843 4
c18 -12 44 -38 56 -56 23 -33 23 -39 23 -317 l0 -284 -171 0 -170 0 3 283 c3
261 4 284 23 315 46 78 165 107 236 59z m851 1 c21 -12 49 -38 61 -58 21 -34
22 -47 25 -317 l3 -283 -170 0 -171 0 0 284 c0 278 0 284 23 317 53 79 147
103 229 57z"/>
</g>
</svg>
